<?xml version="1.0" encoding="utf-8"?>
<!-- Generator: Adobe Illustrator 20.0.0, SVG Export Plug-In . SVG Version: 6.00 Build 0)  -->
<svg version="1.1" id="Layer_1" xmlns="http://www.w3.org/2000/svg" xmlns:xlink="http://www.w3.org/1999/xlink" x="0px" y="0px"
	 viewBox="0 0 403.2 158.5" style="enable-background:new 0 0 403.2 158.5;" xml:space="preserve">
<style type="text/css">
	.st0{fill:#FFFFFF;}
</style>
<g>
	<path class="st0" d="M62.2,0.6H0.7v90.9c0.3,0.9,0.6,1.8,0.9,2.7l60.6-41l60.6,41c0.3-0.9,0.6-1.8,0.9-2.7V0.6H62.2z M24.2,8.7
		c2.3-0.9,3.7-0.3,4.2,0c0.5-0.3,1.9-0.9,4.2,0c2.4,1,3.5,2.6,3.1,4.7c-0.3,1.5-2.7,4.2-4.3,5.9c1.8,1.4,4.8,3.5,4.8,4.4
		c0.2,2.3-0.3,5-0.5,6.4c-0.1,0.4-0.2,1.7-0.4,3.3c-1.1-0.1-2.3-0.1-3.7-0.2c0.1-2.1,0.2-3.8,0.2-3.8s0.1-2.1,0-2.8s-1.4-2-1.4-2
		s-0.7-0.8-1.6-1.6c0.8-0.6,1.9-1.5,2.1-2.1c0.3-1.5-0.3-1.8-0.4-1.8s-0.2,0-0.2,0.1c-0.1,0.1-0.1,0.2,0,0.2v0.1
		c0,0.1,0,0.5-0.1,0.7c-0.2,0.6-0.5,1-1.5,1c-0.1,0-0.3,0-0.4-0.1c-0.1,0-0.2,0.1-0.2,0.2c-0.1,0.3,0.5,0.6,0.5,0.6h0.1l-0.5,0.7
		c-1,1-1.9,2-1.9,2s-1.3,1.3-1.4,2s0,2.8,0,2.8s0.1,1.8,0.2,3.8c-1.3,0-2.5,0.1-3.7,0.2c-0.2-1.6-0.4-2.9-0.4-3.3
		c-0.2-1.4-0.7-4.1-0.5-6.4c0.1-0.9,3-3,4.8-4.4c-1.6-1.7-4-4.4-4.3-5.9C20.7,11.3,21.8,9.7,24.2,8.7z M8.1,15
		c0-1.1,1.1-1.1,1.1-1.1h7c1.1,0,1.9,0.8,1.9,0.8l2.7,2.9c0.8,0.8,0.8,1.7,0.8,1.7v0.9h-4.9c-1.1,0-1.1,1.1-1.1,1.1v8.5v4.1
		c-1.3,0.2-2.4,0.4-3.3,0.7V21.3c0-1.1-1.1-1.1-1.1-1.1h-3V15H8.1z M14,55.6c-1.8,0-1.7-2.1-1.7-2.1v-6.7c0.8-0.2,1.9-0.5,3.3-0.8
		v7.5C15.6,53.5,15.7,55.6,14,55.6z M26.4,56.8c-0.2,1.8-0.8,2.9-0.9,3.3c-0.2,0.4-0.7,1-1.4,0.9c-0.7-0.1-0.6-1.3-0.4-2
		c0.1-0.4,0.6-1.8,0.6-3.3c0-1.4-0.7-8.1-1-10.6c0.9,0,1.8-0.1,2.8-0.1c0.1,1.1,0.1,2,0.1,2.2C26,48,26.5,56,26.4,56.8z M33.2,59.1
		c0.1,0.7,0.3,1.8-0.4,2c-0.7,0.1-1.2-0.5-1.4-0.9c-0.2-0.4-0.7-1.6-0.9-3.3c-0.1-0.8,0.4-8.9,0.4-9.5c0-0.2,0-1.1,0.1-2.2
		c1,0,1.9,0.1,2.7,0.1c-0.3,2.5-1,9.2-1,10.6C32.6,57.3,33.1,58.7,33.2,59.1z M44.2,53.5c0,0,0.1,2.1-1.7,2.1
		c-1.8,0-1.6-2.1-1.6-2.1v-7.4c1.4,0.2,2.5,0.5,3.3,0.8C44.2,46.9,44.2,53.5,44.2,53.5z M47.2,45.5c0,0-3-2.9-19-2.9
		S9.3,45.5,9.3,45.5l-0.3-7c0,0,3.2-2.8,19.2-2.8c16.1,0,19.3,2.8,19.3,2.8L47.2,45.5z M48.3,20.2h-3c0,0-1.1,0-1.1,1.1v13.4
		c-0.9-0.2-2-0.5-3.3-0.7v-4.2v-8.5c0,0,0-1.1-1.1-1.1h-4.9v-0.9c0,0,0-0.9,0.8-1.7l2.7-2.9c0,0,0.8-0.8,1.9-0.8h7
		c0,0,1.1,0,1.1,1.1L48.3,20.2L48.3,20.2z M85.1,11.9c0.1-0.4,0.5-0.7,0.5-1.1c0-0.2,0-0.2,0-0.4s0.1-0.5,0.2-0.7
		c0.1-0.2,0.3-0.3,0.4-0.5c0.2-0.2,0.4-0.3,0.6-0.5c0.2-0.1,0.3-0.3,0.5-0.4c0.4-0.2,0.8-0.3,1.2-0.4c0.5-0.2,2.2-0.1,2.7,0.2
		c0.3,0.2,1,0.6,1.3,0.9c0.2,0.4,0.7,1.3,0.7,2.3c0,0.9,0.3,2.5,0.5,3.5c0.1,0.5,0.4,0.2,0.4,0.2s0.3-2.5,0.4-4
		c0.1-1.3,0.1-1.5,0.4-1.9c0.7-0.3,1.5-0.7,2.2-1C97.2,8,97.4,8,97.5,7.9c0.4,0,0.8-0.1,1.1-0.1c0.2,0,0.4,0,0.6,0
		c0.2,0,0.3,0.1,0.5,0.1c0.3,0.1,0.7,0.3,1,0.5c0.2,0.2,0.5,0.3,0.7,0.5s0.3,0.4,0.4,0.6c0.2,0.4,0.4,0.8,0.5,1.1
		c0,0,0.4,1.4,0.4,2.6c0,0.6-1,2.6-1,2.6l-2,2.4c0,0,0,0.7-0.2,0.9s-1,0.7-1,0.8c0,0.4,0.9,0.1,0.9,0.1s-0.3,2.2-0.4,2.6
		c0,0.1-0.1,0.3-0.2,0.5c0,0.1-0.1,0.1-0.1,0.2c0,0.1-0.1,0.2-0.1,0.3c-0.1,0.2-0.2,0.4-0.2,0.4l-1.1,4.8c-0.2,1.2-0.4,2.4-0.7,3.6
		c0,0.1,0,0.2-0.1,0.3c-0.2,0.1-0.3,0.2-0.5,0.4l-1.5-2.3h-3L90,33c-0.1-0.1-0.3-0.3-0.5-0.4c0-0.2-0.1-0.5-0.1-0.6
		c0-0.2-0.1-0.5-0.2-0.7c-0.1-0.2-0.1-0.5-0.1-0.7c0-0.1,0-0.1,0-0.2c0-0.3,0-0.6-0.1-0.9c-0.1-0.4-0.1-0.8-0.1-1.1s0-0.7-0.1-1
		c-0.1-0.4-0.2-0.7-0.3-1.1c0-0.2-0.1-0.4-0.1-0.6c0-0.3-0.2-0.7-0.2-1l-0.1-0.6c0-0.3-0.1-0.2-0.1-0.5c-0.2-0.5,1.4,0.4,1.7,0.2
		c0.1-0.3-1.4-1.1-1.5-1.2c0-0.2-0.1-0.3-0.2-0.4c-0.1-0.2-0.2-0.4-0.2-0.6c-0.1-0.6-0.4-1.1-0.4-1.7c-0.1-0.4-0.1-0.8-0.1-1.1
		s-0.1-0.6-0.1-0.9c0.5,0.3,1.1,0.7,1.5,0.9c0.5,0.3,1.5,1.4,1.5,1.4c0.1,0.1,0.1,0.1,0.2,0c0.1,0,0.1-0.1,0.1-0.2c0,0,0-0.3,0-0.6
		c0,0,0,0,0.1,0c0.3,0,0.9,0.3,1.6,1.1c0.4,0.5,0.5,1.2,0.5,1.9c0,0.5,0.1,1,0.2,1.4c0.1,0.3,0.2,1.1,0.2,1.8
		c0.1,1.4,0.1,1.8,0.5,1.8c0,0,0.1,0,0.2-0.1c0.4-0.4,0.3-3.6,0.3-5c0.1-0.2,0.4-0.7,0.6-0.9c0.4-0.7,1.5-1.2,2.7-1.7s1.7-1.7,1.9-2
		c0.2-0.1,0.8-0.3,1.2-0.5c0.5-0.2,1.4-1.6,1.5-1.8c0.1-0.1,0-0.2-0.1-0.2c-0.1-0.1-0.2,0-0.2,0c-0.3,0.4-0.7,0.8-0.8,0.8
		s-0.4-0.2-0.5-0.4c-0.1-0.1-0.2-0.1-0.2,0c-0.1,0.1-0.1,0.2-0.1,0.2s0.3,0.5-0.1,0.7c-0.2,0.1-0.3,0.2-0.5,0.2c-0.1,0-0.1,0-0.2,0
		c-0.9-1.6-0.9-1.6-1-1.6s-0.1,0-0.2,0.1c-0.1,0.1,0,0.2,0,0.3v0.1c0.2,0.5,0.7,1.5,0,2.5c-0.3,0.4-1.2,0.9-2.6,1.4
		c-0.7,0.2-1.3,0.8-1.7,1.2c-0.1,0.1-0.2,0.2-0.3,0.3c-0.1-0.1-0.2-0.3-0.3-0.4c-0.2-0.2-0.3-0.5-0.5-0.8c-0.3-0.3-0.6-0.4-1.2-0.6
		c-0.3-0.1-0.7-0.2-1.3-0.4c-0.9-0.3-1.1-1.4-1.2-1.9c0-0.2-0.1-0.4-0.3-0.4s-0.2,0.1-0.3,0.3c-0.2,0.6-0.1,1,0,1.3
		c0,0-0.1,0-0.2-0.1c-0.3-0.2-1.3-0.7-1.8-1c-0.9-1-1.5-2.2-1.5-3.5C85,12.8,85,12.3,85.1,11.9z M76.2,31.8
		c-0.1-0.2-0.2-0.3-0.3-0.5c-0.2-0.2-0.4-0.2-0.7-0.3c-0.3-0.1-0.6-0.2-0.8-0.3c-0.2-0.1-0.4-0.3-0.6-0.4c-0.1-0.1-0.3-0.1-0.4-0.2
		c-0.2-0.2-0.3-0.5-0.6-0.7c-0.4-0.3-1-0.2-1.4-0.4c-0.3-0.1-0.6-0.3-1-0.5c-0.2-0.1-0.5-0.2-0.7-0.3c-0.7-0.7-0.9-1.7-1.1-2.6
		c0-0.2,0-0.5-0.1-0.7c-0.1-0.1-0.1-0.2-0.2-0.3c-0.1-0.3-0.2-0.6-0.2-0.9c0-0.2,0-0.3,0-0.5c0.1-0.5,0.3-1.1,0.6-1.5
		c0.3-0.4,0.6-0.7,1.1-0.9c0.3-0.1,0.6-0.2,0.9-0.3c0.4-0.1,0.8-0.3,1.2-0.3c0.1,0,0.2,0,0.3,0c0.1,0,0.2-0.1,0.3-0.1
		c-0.3,0.8-0.6,2.1-0.1,3.1c0.8,1.6,0.8,1.3,1.2,1.8c0.4,0.5,0.7,1.2,0.7,1.2s0.2-0.3-0.1-0.8c-0.4-0.9-1.1-2.4-1.1-3.9
		c0-1.1,0.3-2,1-2.8c0.3-0.2,0.6-0.4,0.9-0.7s0.5-0.6,1-0.7c0.3,0,0.6-0.2,0.9-0.2c0.2,0,0.5,0,0.7,0s0.4,0,0.6,0
		c0.3,0,0.6,0.1,0.9,0.1c0.3,0.1,0.6,0.1,0.9,0.2c0.2,0.1,0.3,0.1,0.5,0.2c0.5,0.1,0.8,0.4,1.2,0.7c0.1,0.1,0.2,0.1,0.3,0.2
		c0.1,0.1,0.2,0.2,0.3,0.2c0.1,0.1,0.3,0.1,0.4,0.3c0.3,0.2,0.6,0.5,0.7,0.9c0.1,0.3,0.2,0.6,0.4,0.9c0.1,0.1,0.1,0.2,0.2,0.3
		c0.1,0,0.1,0,0.2,0.1c0.2,0.1,0.2,0.3,0.3,0.5c0,0.1,0.1,0.2,0.1,0.3c0,0.3,0.1,0.5,0.2,0.7c0.2,0.2,0.3,0.5,0.4,0.8
		c0.1,0.3,0.2,0.7,0.3,1c0.2,0.4,0.5,0.8,0.7,1.2c0.1,0.2,0.1,0.4,0.2,0.7c0.1,0.2,0.2,0.2,0.4,0.4c0.1,0.1,0.1,0.2,0.2,0.4
		c0.1,0.2,0.2,0.4,0.2,0.6c0.1,0.3,0.2,0.5,0.2,0.8c0.1,0.4,0.2,0.7,0.2,1.1c0,0.2-0.1,0.5,0.1,0.6c0,0.1,0.1,0.1,0.1,0.2
		c0.1,0.1,0.1,0.3,0.1,0.4c0.1,0.3,0.3,0.6,0.4,0.9c0.1,0.2,0.2,0.4,0.2,0.6c0,0.1,0,0.2-0.1,0.3c0,0,0,0,0,0.1
		c-0.4-0.1-0.8-0.1-1.2-0.1c-0.5-0.7-1.4-1.3-2-1.6l-1.5,0.3c-0.1-0.5-0.3-1-0.5-1.3c-0.4-0.8-0.8-2.4-0.8-2.7c0-0.1,0-0.3,0-0.6
		c0.1-1.3,0.1-2.6,0-3c-0.2-0.6-1.5-1.5-1.6-1.7c-0.1-0.1-0.2,0-0.2,0c-0.1,0.1-0.1,0.2,0,0.2c0,0,0.2,0.2,0.6,1
		c0.3,0.6,0.3,1.1,0.2,1.8c0,0.3,0,0.6,0,0.9c0,0.8-0.5,1.7-0.8,2.1c-0.1-0.1-0.2-0.4-0.2-0.6c-0.1-0.6-0.4-1.1-0.4-1.1
		c-0.1-0.1-0.2-0.1-0.2-0.1c-0.1,0-0.1,0.1-0.1,0.2c0,0,0.2,0.7,0,2.4S77.3,32,77.3,32s0,0,0,0.1c-0.1,0-0.2,0.1-0.2,0.1
		c-0.1,0.1-0.2,0.2-0.4,0.3c-0.1,0.1-0.4,0.1-0.5,0C76.3,32.1,76.3,31.9,76.2,31.8z M82.9,31.1l-0.5,0.1c-0.2,0.2-0.8,1.1-1,2.3
		c-0.2,0.1-0.5,0.1-0.7,0.2c0-0.1-0.1-0.3-0.1-0.4c-0.1-0.1-0.3-0.2-0.4-0.4c-0.2-0.2-0.3-0.5-0.5-0.7c-0.1-0.3-0.2-0.6-0.2-0.9
		c0-0.3,0.6-1.5,1-2c0-0.1,0.1-0.1,0.1-0.2c0.3-0.4,0.5-0.7,0.9-0.6C82.1,28.9,82.6,30.2,82.9,31.1z M88.7,47.2
		c-0.1,0.2-0.2,0.5-0.3,0.8c-0.1,0.2-0.2,0.5-0.3,0.7c-0.2,0.6-0.3,1.2-0.5,1.8c-0.1,0.2-0.1,0.5-0.2,0.7c-0.1,0.4-0.2,0.7-0.4,1
		c-0.2,0.5-0.4,0.8-0.6,1.2c-0.2,0.3-0.4,0.6-0.6,0.9c-0.2,0.4-0.5,0.7-0.9,0.9c-0.3,0.1-0.7,0.2-1,0.4c-0.2,0.1-0.4,0.4-0.5,0.6
		c-0.2,0.3-0.4,0.6-0.5,0.9c-0.1,0.2-0.1,0.4-0.3,0.6c-0.1,0.2-0.3,0.3-0.4,0.5c-0.1,0.2-0.2,0.4-0.4,0.5c-0.1,0.2-0.2,0.4-0.5,0.3
		c-0.5-0.1-0.2-0.5,0-0.7c0.2-0.3,0.3-0.6,0.5-0.8c0.2-0.3,0.4-0.7,0.6-1c0.1-0.2,0.2-0.4,0.3-0.7c0.2-0.8-0.2-1.7-0.4-2.4
		c-0.1-0.5-0.1-1,0-1.5c0.1-0.3,0.2-0.5,0.3-0.8c0.2-0.8,0.4-1.6,0.6-2.3c0-0.2,0.1-0.3,0.1-0.5l0.3-0.1c0.6-0.5,2.4-1.3,5.3-1.8
		C88.9,46.8,88.8,47.1,88.7,47.2z M96,47.2c-0.1,0.1-0.1,0.4-0.1,0.6c-0.1,1-0.1,2.1-0.6,3c0,0,0,0,0.1,0c0,0.1,0,0.2,0,0.4
		c0,0.2,0,0.4,0,0.6c0,0.3,0,0.6,0,0.9s0,0.6,0,0.9c0,0.1,0,0.3-0.1,0.4c-0.1,0.3-0.2,0.7-0.3,1s-0.2,0.6-0.4,0.8
		c-0.2,0.2-0.4,0.3-0.6,0.5c-0.2,0.1-0.4,0.2-0.6,0.4c-0.2,0.3-0.2,1-0.3,1.4C93,59,93,59.9,93,60.8c0,0.2-0.2,1.7-0.6,1.2
		c-0.3-0.4-0.2-0.9-0.2-1.4s0-1,0.1-1.5c0-0.5,0-1-0.1-1.4c0-0.2,0-0.5-0.1-0.6c0,0-0.2-0.1-0.3-0.2s-0.2-0.2-0.4-0.4
		c-0.1-0.2-0.3-0.3-0.5-0.5c-0.3-0.4-0.3-1-0.4-1.5c-0.1-0.5-0.1-1-0.1-1.6c0-1.1,0.1-2.1,0-3.2c-0.1-0.5,0-1.1-0.1-1.6
		c0-0.2-0.1-1.1-0.3-1.8c0.8-0.1,1.7-0.1,2.7-0.1c1.3,0,2.4,0.1,3.4,0.2C96.1,46.8,96.1,47.2,96,47.2z M104.2,59.4
		c-0.1,0-0.3,0-0.3-0.1c-0.2-0.2-0.4-0.5-0.6-0.8c-0.2-0.2-0.3-0.4-0.3-0.7c-0.1-0.2-0.2-0.7-0.4-0.6c0-0.2-0.2-0.6-0.3-0.8
		c-0.1-0.2-0.2-0.5-0.2-0.7c-0.1-0.2-0.3-0.3-0.5-0.4c-0.4-0.2-0.7-0.5-1-0.8c-0.5-0.4-0.8-0.9-1.2-1.4c-0.1-0.2-0.2-0.3-0.3-0.5
		c0-0.2-0.2-0.3-0.2-0.5s0-0.4,0-0.7c0-0.3-0.2-0.4-0.3-0.6c-0.2-0.3-0.3-0.7-0.4-1c-0.1-0.3-0.1-0.6-0.2-0.9
		c-0.1-0.3-0.3-0.6-0.5-0.8c-0.1-0.2-0.2-0.4-0.3-0.6c-0.1-0.1-0.1-0.5-0.2-0.9c2.7,0.4,4.4,1.2,5,1.7l0.4,0.1
		c0,0.3,0.1,0.5,0.2,0.8c0.1,0.5,0.3,1.1,0.4,1.6c0.1,0.3,0.2,0.7,0.2,1c0,0.1,0,0.3,0.1,0.5c0,0.2,0.1,0.5,0.2,0.7
		c0,0.2,0,0.5,0,0.8c0,0.4-0.2,0.7-0.3,1.1c-0.1,0.3-0.3,0.5-0.3,0.7c0.1,0.2,0.2,0.5,0.3,0.7l1.1,2.4c0.1,0.2,0.1,0.4,0.2,0.6
		C104.4,59.3,104.4,59.4,104.2,59.4z M104.3,46.4h-0.9c-1.5-1.3-5.3-2.5-10.6-2.5s-9,1.3-10.5,2.5h-0.9l-4.9-9.5l1.8-0.8l0.3,2.2
		l1.1-1.7l1.4,3h-2c0,0,1.1,1.9,3.6,1.5c0.8-0.1,1.4-0.5,1.8-0.9c-0.1,0-0.8,0.3-1.2-0.2c-0.5-0.5,0.2-1.1,0.2-1.1s0.1,0.4,0.5,0.5
		c0.5,0.1,0.5-0.7,0.5-0.7s-0.4-0.1-0.4-0.4c0-0.2,0.4-0.5,0.4-0.5s-0.6-1.4-1.5-1s-0.1,1.3-0.1,1.3s-1.2-0.2-1.7-0.6
		c-0.5-0.5-0.4-1.5,0.9-1.8c1.2-0.2,2.1,0.7,2.1,0.7s-0.5-1-0.7-2c-0.1-0.9,0.5-1.8,0.5-1.8s1.1,0.6,1.4,1.1
		c0.2,0.5,0.2,2.4,0.2,2.4s1-1.4,1.6-1.6c0.4-0.1,1.2-0.1,1.4,0.9c0.1,0.9-0.9,1.7-0.9,1.7s0-0.5-0.2-0.9c-0.3-0.4-0.7-0.1-1,0.2
		c-0.3,0.3-0.3,0.9-0.3,0.9s0.4,0.4,0.4,0.5c0,0.2-0.2,0.5-0.2,0.5s0.2,0.5,0.6,0.4c0.4-0.1,0.2-0.9,0.2-0.9s0.5,0.4,0.8,0.6
		s0.1,0.7-0.4,1.1c-0.1,0.1-0.3,0.2-0.5,0.3c0.4,0.1,0.9,0.2,1.6,0.2c1.5-0.1,2.4-0.7,2.9-1.3l0.6-1.8l-1.9,1.3L90,34.4l2.3,1.5
		l-0.9-2.5h3.2l-1.1,2.5l2.3-1.4l-0.4,3.7l-1.8-1.4l0.5,1.9c0.4,0.6,1.1,1.2,2.1,1.3c0.7,0.1,1.4,0,2-0.3l0,0
		c-0.4-0.3-0.6-0.8-0.3-1.1c0.3-0.2,0.8-0.6,0.8-0.6s-0.2,0.8,0.2,1c0.4,0.1,0.7-0.3,0.7-0.3s-0.2-0.4-0.2-0.5
		c0-0.2,0.4-0.5,0.4-0.5s0-0.5-0.3-0.9s-0.7-0.6-1-0.3c-0.3,0.4-0.3,0.9-0.3,0.9s-1.1-0.8-0.9-1.7c0.1-0.9,1-1,1.4-0.9
		c0.6,0.2,1.6,1.6,1.6,1.6s0-1.8,0.2-2.4c0.2-0.5,1.4-1.1,1.4-1.1s0.6,0.8,0.5,1.8c-0.1,0.9-0.7,1.9-0.7,1.9s0.9-0.9,2.1-0.7
		c1.2,0.3,1.4,1.3,0.8,1.8c-0.5,0.5-1.7,0.6-1.7,0.6s0.9-0.9,0-1.3s-1.5,1-1.5,1s0.4,0.3,0.3,0.5c-0.1,0.3-0.4,0.4-0.4,0.4
		s0,0.7,0.5,0.7c0.5-0.1,0.6-0.5,0.6-0.5s0.7,0.6,0.2,1.1c-0.4,0.4-0.9,0.3-1.1,0.3c0.3,0.4,0.7,0.8,1.2,1c2.1,0.8,3.8-1.2,3.8-1.2
		l-2-0.3l1.8-3l1.1,2.1l0.3-2.4l1.8,1.4L104.3,46.4z M103,31.4c0.1-0.1,0.2-0.3,0.4-0.5v-0.1c1.2-1.8,1.7-2,1.8-2
		c0.4,0,0.7,0.6,0.7,0.9c0,0.3,0.2,0.4,0.4,0.6c0.1,0.1,0.2,0.2,0.2,0.2v0.1c0.2,0.3,0.5,0.8,0.5,1.2c0,0.1,0,0.1-0.2,0.3
		s-0.2,0.2-0.3,0.4c-0.2,0.2-0.5,0.6-0.5,0.8c-0.1,0.3-0.3,0.6-0.6,0.9c-0.2-0.1-0.4-0.2-0.7-0.3c-0.2-1.2-0.8-2.1-0.9-2.3L103,31.4
		z M118.7,24.8c0,0.1-0.1,0.1-0.1,0.2l0,0c0,0-0.2,0.3-0.5,0.2c-0.1,0-0.2-0.1-0.3-0.1c-0.1-0.1-0.3-0.2-0.4-0.3
		c-0.2-0.1-0.3-0.2-0.5-0.3c-0.1,0-0.2-0.1-0.2-0.1c-0.1,0-0.2,0.1-0.2,0.2c0,0.2,0.2,0.2,0.3,0.2l0,0c0.1,0,0.2,0.1,0.3,0.1
		l0.4,0.2c0.1,0.1,0.2,0.1,0.2,0.2c0.1,0.1,0.3,0.3,0.4,0.6c0,0.1,0.1,0.2,0.1,0.3s0,0.1,0,0.2c0,0.5,0.1,1.1-0.3,1.5
		c-0.1,0.1-0.1,0.1-0.2,0.2c-0.1,0.2-0.1,0.3-0.3,0.4c-0.2,0.2-0.3,0.3-0.5,0.5c-0.3,0.2-0.5,0.4-0.8,0.5c-0.2,0-0.4,0-0.6,0.1
		c-0.3-0.2-0.4-0.4-0.4-0.8c0-0.1,0-0.2,0-0.3c-0.1-0.7-0.3-0.7-0.4-0.7c-0.1,0-0.1,0-0.2,0.1c0,0.1-0.1,0.1,0.1,0.6
		c0.2,0.5-0.1,1.4-0.2,1.8c-0.2,0.3-0.5,0.6-0.7,0.8c-0.4,0.2-0.7,0.5-1.2,0.6c-0.2,0.1-0.5,0.2-0.7,0.3c-0.2,0-0.4,0.1-0.5,0.2
		c-0.1,0.1-0.3,0.2-0.2,0.5c0,0.1,0.3,0.3,0.3,0.3c0,0.4-0.9,0.1-1.1,0c-0.2-0.1-0.3-0.1-0.5-0.2c-0.2-0.1-0.5-0.2-0.7-0.4
		c-0.2-0.1-0.3-0.3-0.5-0.5c-0.1-0.1-0.2-0.2-0.3-0.3c-0.4-0.5-0.9-1.2-1.2-1.8c-0.6-1.3-0.5-2.4-0.3-2.5c0.3-0.3,0.4-0.8,0.4-0.9
		c0-0.1,0-0.2-0.1-0.2s-0.1,0-0.2,0c0,0-0.7,0.5-0.8,1.1c-0.1,0.4-0.2,0.6-0.2,0.6c-0.3-0.1-0.6-1.2-0.6-1.6c0-0.1,0-0.2,0-0.4
		c-0.1-0.5-0.2-1.5,0-1.9c0.4-0.8,1.1-1.4,1.5-1.7c0.2-0.1,0.4-0.3,0.3-0.5c0-0.1-0.1-0.2-0.4-0.2h-0.1h-0.1
		c-0.4,0.4-0.9,0.7-1.2,0.9c-0.1-0.3-0.2-0.9-0.2-1.2c0.3-0.9,0.2-1,0.2-1l-0.1-0.1c-0.1,0-0.2,0-0.5,1c-0.2,0.7-0.2,1.8-0.2,1.8
		c0,0.5-0.1,1.4-0.3,1.7s-0.1,1,0,1.9c0,0.2,0.1,0.4,0.1,0.5c0,0.3-1.5,3.4-1.8,3.8c-0.1,0.1-0.1,0.2-0.1,0.2l-1.6-0.4
		c-0.7,0.3-1.5,0.9-2,1.6c-0.4-0.1-0.9,0-1.3,0.1c0-0.2,0.1-0.4,0.1-0.5c0.1-0.2,0.1-0.5,0.2-0.7c0.1-0.2,0.1-0.4,0.2-0.5
		c0.1-0.2,0.4-0.5,0.5-0.7c0.1-0.3,0-0.6,0.1-0.9c0.3-0.6,0.5-1.3,0.8-1.9c0.1-0.3,0.2-0.5,0.3-0.8s0.2-0.5,0.3-0.8
		c0.1-0.2,0.3-0.4,0.4-0.6c0.1-0.2,0.2-0.4,0.3-0.6c0-0.1,0-0.2,0.1-0.3c0-0.1,0.1-0.3,0.2-0.4c0.3-0.6,0.9-0.9,1.3-1.4
		c0.1-0.2,0.2-0.4,0.3-0.5s0.2-0.1,0.2-0.2c0.1-0.1,0.1-0.2,0.1-0.2c0.1-0.2,0.2-0.4,0.2-0.6c0.1-0.3,0.2-0.5,0.4-0.7
		c0.2-0.3,0.4-0.6,0.7-0.8c0.2-0.1,0.3-0.3,0.5-0.3c0.2-0.1,0.4-0.2,0.6-0.3c0.2-0.1,0.3-0.2,0.5-0.4c0.2-0.1,0.4-0.2,0.6-0.2
		c0.4-0.1,0.8-0.1,1.2-0.1c0.1,0,0.2-0.1,0.3-0.1s0.2,0,0.4,0c0.5,0,0.9,0,1.4,0.1c0.4,0,0.9,0.2,1.2,0.4c0.2,0.1,0.3,0.3,0.5,0.3
		c0.2,0.1,0.3,0.2,0.5,0.3s0.2,0.2,0.3,0.3s0.2,0.2,0.3,0.4l0,0c0.4,0.7,0.9,2,0.9,2.9c-0.1,1.2-0.8,3.1-1.1,3.5s-0.5,0.8,0.4,0.2
		c1-0.6,1.9-3.6,1.9-4.1c0-0.3,0.2-0.5,0.5-0.6c0.1,0,0.1,0,0.2,0c0.5,0,1,0,1.5,0.3c0.3,0.2,0.7,0.4,1,0.7c0.4,0.3,0.8,1,0.8,1.5
		C118.8,24.3,118.8,24.6,118.7,24.8z"/>
	<path class="st0" d="M27.9,16.3c-0.8,0.7-1.8,1.5-1.9,2.1c-0.3,1.7,1.1,2.1,1.1,2.1l0.2,0.1h0.1l0,0c0.1,0,0.2-0.1,0.2-0.2
		c0-0.1,0-0.1-0.1-0.2c-0.1-0.2-0.5-0.9-0.3-1.4c0.2-0.6,0.8-0.7,1.2-0.7c0.4,0,0.6,0.1,0.7,0.1c0,0.1,0.1,0.1,0.3,0.1
		c0.1,0,0.2-0.1,0.2-0.2c0.1-0.2-0.3-0.8-0.9-1C28.6,17,28.4,17,28.1,17l0.4-0.4c1-0.8,2-1.6,2.3-2c0.9-1.1,1.3-2.9,0.7-3.7
		C31,10.2,30,9.5,29.4,9.2c-0.2-0.1-0.7-0.3-1-0.4c-0.3,0.1-0.7,0.3-1,0.4c-0.6,0.3-1.6,1-2.1,1.7c-0.6,0.8-0.2,2.7,0.7,3.7
		C26.3,15,27.1,15.6,27.9,16.3z"/>
	<polygon class="st0" points="26.7,36.6 27.4,38.3 25.6,37.7 25.6,40.6 27.4,40 26.7,41.7 29.7,41.7 29,40 30.8,40.6 30.8,37.7 
		29,38.3 29.7,36.6 	"/>
	<path class="st0" d="M3.8,100.4c16.1,43.1,31.1,41.6,58.4,57.7c27.2-16.1,42.3-14.6,58.4-57.7L62.3,61.1L3.8,100.4z M37.8,89.7
		c0-0.7,0.6-1,0.6-1s5.4-3,12-3s9.8,2,9.8,2c0.6,0.1,0.6,0.8,0.6,0.8v35.7c0,0.7-0.6,0.3-0.6,0.3s-1.9-1.2-8.6-1.4
		s-13.3,2.6-13.3,2.6c-0.6,0.1-0.6-0.5-0.6-0.5L37.8,89.7L37.8,89.7z M88.1,127.9c0.7-0.4,0.7-1.1,0.7-1.1v-35
		c0.1,0,0.2,0.1,0.2,0.1l2.9,1.8c0.6,0.4,0.6,1,0.6,1v37.6c0,0.7-0.6,0.9-0.6,0.9l-2.6-0.1c0,0-3.3-3.9-15.9-3.9c-5.6,0-8.5,3-8.5,3
		h-0.6H60h-0.6c0,0-3-3-8.6-3c-12.6,0-15.9,3.9-15.9,3.9l-2.6,0.1c0,0-0.6-0.3-0.6-0.9V94.7c0,0,0-0.7,0.6-1l2.9-1.8
		c0,0,0.1,0,0.2-0.1v35c0,0,0,0.7,0.7,1.1c0.7,0.4,1.5,0.1,1.5,0.1s9.3-4.1,15.9-2.9c5.3,1,7.8,2.2,8.6,2.7c0.8-0.4,3.3-1.7,8.6-2.7
		c6.6-1.3,15.9,2.9,15.9,2.9S87.4,128.3,88.1,127.9z M63.5,88.5c0,0,0-0.7,0.6-0.8c0,0,3.3-2,9.8-2c6.6,0,12,3,12,3s0.6,0.3,0.6,1
		v35.5c0,0,0,0.7-0.6,0.5c0,0-6.6-2.9-13.3-2.6c-6.7,0.2-8.6,1.4-8.6,1.4s-0.6,0.4-0.6-0.3V88.5H63.5z"/>
</g>
<g>
	<path class="st0" d="M167.7,14.5h0.5c3.3,0.3,3.5,0.8,3.7,2.2c0.2,1.3,0.3,3.3,0.3,7v3.6c0,5.8-1,12.4-8.5,12.4
		c-5.7,0-8.6-3.6-8.6-10.8V18.7c0-4,0.3-4,3.4-4.2h0.5v-1.6h-12.6v1.6h0.5c3.3,0.3,3.3,0.3,3.3,4.2V30c0,5.1,1.4,8.4,4.4,10.5
		c1.8,1.3,4.5,2.1,7.5,2.1c3.6,0,6.6-1.1,8.7-3.1c2.5-2.5,3.6-5.9,3.6-11.4v-4.3c0-3.8,0.1-5.7,0.2-6.8c0.2-1.6,0.6-2.1,3.4-2.4
		l0.5-0.1v-1.6h-11v1.6H167.7z"/>
	<path class="st0" d="M201.8,14.5h0.5c3.3,0.2,3.8,0.7,4,2.5c0.2,1.4,0.2,3.5,0.2,6.9v10.5l-19.7-21.5h-7.3v1.6h0.5
		c2.4,0.2,2.8,0.5,3.8,1.6c0.7,0.8,0.9,1.1,0.9,4.4v10c0,3.9-0.2,5.9-0.3,7.2v0.2c-0.2,2-0.8,2.5-3.5,2.7h-0.5v1.6h11.2v-1.7h-0.5
		c-3.1-0.3-3.6-0.6-3.8-2.7c-0.2-1.6-0.3-4-0.3-7.3V20l20.1,22.5l0.2,0.2h1.6V24c0-3.8,0.1-5.6,0.2-7c0.2-1.8,0.7-2.2,3.2-2.4h0.5
		V13h-10.9v1.5H201.8z"/>
	<path class="st0" d="M213.6,14.5h0.5c3.5,0.2,3.6,0.4,3.6,3.8v18.3c0,3.4-0.1,3.6-3.6,3.8h-0.5V42h13.2v-1.5h-0.5
		c-3.5-0.2-3.7-0.4-3.7-3.8V18.4c0-3.4,0.1-3.6,3.7-3.8h0.5V13h-13.2V14.5z"/>
	<path class="st0" d="M259.7,12.9h-11v1.6l0.5,0.1c1.4,0.2,2.8,0.4,3.1,0.8c0.2,0.3-0.1,1.1-0.3,1.9c-2,5.8-5.4,13.8-7.3,18
		c-3.2-7.6-6.5-15.6-7.7-18.7c-0.2-0.5-0.4-1.1-0.2-1.3c0.2-0.4,1.9-0.6,2.6-0.6l0.5-0.1V13h-12.4v1.5h0.5c2.5,0.2,2.9,0.4,4.4,4
		c3.1,7.3,6.5,15.6,9.7,23.9l0.1,0.3h1.5l0.1-0.3c3.7-9.4,8.7-20.5,10.1-23.6c1.7-3.8,2.1-4,5-4.3l0.5-0.1v-1.5H259.7z"/>
	<path class="st0" d="M282.1,34.8c-0.7,1.6-1.4,3-2.1,3.8c-0.9,1-1.5,1.5-6,1.5c-2.2,0-3.8,0-4.6-0.6c-0.5-0.3-0.8-0.9-0.8-3v-8.4
		h4.3c4,0,4.1,0.4,4.5,3l0.1,0.5h1.6v-9h-1.6l-0.1,0.4c-0.5,2.5-0.6,2.8-4.6,2.8h-4.2V15.7c0-0.2,0-0.6,0-0.7c0,0,0.2-0.1,0.8-0.1
		h3.2c3.7,0,4.9,0.2,5.7,1.2c0.6,0.7,1,1.7,1.4,3.3l0.1,0.5l1.7-0.3v-0.5c-0.1-1.4-0.3-4.2-0.3-5.6v-0.6h-21.3v1.6h0.5
		c3.3,0.3,3.3,0.3,3.3,4.1v18c0,3.4-0.2,3.5-4.1,3.8h-0.5V42H282l0.1-0.4c0.5-1.6,1.4-5,1.6-6.4l0.1-0.5l-1.7-0.3V34.8z"/>
	<path class="st0" d="M309.2,38.8c-1.2-1.3-2.6-2.9-4-4.9c-1.3-1.7-3.1-4.2-4-5.8c4-1.7,6-4.3,6-7.6c0-2.6-1.1-4.7-3.2-6
		c-1.8-1.1-4.1-1.6-7.9-1.6h-11.8v1.6h0.5c3.3,0.3,3.4,0.3,3.4,3.7v18.5c0,3.4-0.1,3.6-3.6,3.8h-0.5v1.6h13v-1.6h-0.5
		c-3.4-0.2-3.5-0.4-3.5-3.8v-7.3h0.7c2.2,0,2.8,0.5,3.6,1.7c0.6,0.8,1.2,1.7,1.8,2.6c1.1,1.6,2.1,3.2,3.2,4.6
		c2.2,2.9,4.3,3.9,8.3,4.1c0.4,0,0.9,0,1.3,0h0.4l0.3-1.4l-0.5-0.1C311.2,40.6,310.5,40.3,309.2,38.8z M293.1,16.6
		c0-1.4,0.2-1.5,0.2-1.5c0.1-0.1,1-0.2,2.4-0.2c3.9,0,6.2,2.4,6.2,6.3c0,2.4-0.8,4.1-2.4,5.3c-1.1,0.8-2.4,1.1-4.9,1.1h-1.5
		L293.1,16.6L293.1,16.6z"/>
	<path class="st0" d="M323.7,25.3l-0.3-0.2c-4.1-2-5.9-3.4-5.9-6.3c0-2.8,1.9-4.6,4.9-4.6s5,1.7,6.2,5.4l0.2,0.5l1.6-0.3l-0.2-1.2
		c-0.3-2-0.6-3.5-0.7-4.9v-0.4l-0.4-0.1c-0.2-0.1-0.5-0.1-0.7-0.2c-1.2-0.3-2.9-0.7-5.2-0.7c-6.6,0-10.1,4.1-10.1,8.1
		c0,4.8,4.6,7.2,7.4,8.7l0.7,0.4c3.5,1.9,5.9,3.3,5.9,6.2c0,3.1-2.1,5-5.4,5c-5.9,0-7.5-6.1-7.7-6.8l-0.1-0.6l-1.6,0.6v0.4
		c0.1,1.1,0.8,5.9,1.2,6.7l0.1,0.2l0.2,0.1c0.5,0.2,1.3,0.5,2.6,0.9l0.2,0.1c1,0.3,2.5,0.6,4.4,0.6c6.1,0,10.8-3.6,10.8-8.5
		C331.6,29.2,327.4,27.1,323.7,25.3z"/>
	<path class="st0" d="M332.9,14.5h0.5c3.5,0.2,3.6,0.4,3.6,3.8v18.3c0,3.4-0.1,3.6-3.6,3.8h-0.5V42h13.2v-1.5h-0.5
		c-3.5-0.2-3.7-0.4-3.7-3.8V18.4c0-3.4,0.1-3.6,3.7-3.8h0.5V13h-13.2V14.5z"/>
	<path class="st0" d="M392.4,12.9v1.6h0.5c0.9,0.1,2.6,0.3,2.8,0.6c0.1,0.3-0.3,1.2-0.5,1.6c-1.3,2.5-3.9,7-5.7,9.8l-0.5-0.9
		c-1.8-3-3.9-6.5-5.7-9.8c-0.3-0.5-0.3-0.7-0.3-0.7c0-0.1,0.3-0.3,2.4-0.6l0.5-0.1v-1.6h-11.6c0-0.2,0-0.4,0-0.5v-0.6H373l-0.2,0.2
		c-0.6,0.7-0.9,0.9-2,0.9h-19c-1.3,0-1.7-0.1-2.1-0.8l-0.2-0.3h-1.3v0.5c-0.1,2.6-0.3,5.3-0.6,7.4l-0.1,0.6h1.7l0.1-0.4
		c0.4-1.7,0.9-2.8,1.3-3.6c0.5-0.9,1.3-1.4,6-1.4h2v21.8c0,3-0.1,3.5-3.9,3.7h-0.5v1.6H368v-1.4h-0.5c-4-0.2-4-0.7-4-3.7V14.9h2.7
		c4.1,0,4.8,0.4,5.4,1.3c0.4,0.6,0.8,1.6,1.3,3.6l0.1,0.5l1.7-0.2l-0.1-0.5c-0.2-1.6-0.3-3.4-0.4-5.1h0.3c2.5,0.1,2.6,0.3,4.6,3.6
		c2.4,3.8,4.3,7,5.8,9.8c0.7,1.3,0.8,1.7,0.8,2.4v6.3c0,3.5-0.1,3.6-3.8,3.9h-0.5v1.6H395v-1.6h-0.5c-3.8-0.2-3.9-0.4-3.9-3.9v-6.3
		c0-1.1,0-1.6,0.8-2.8c2.2-3.8,3.9-6.6,6.6-10.4l0.1-0.2c1.2-1.7,1.5-2,4.4-2.4l0.5-0.1v-1.6h-10.6V12.9z"/>
</g>
<g>
	<path class="st0" d="M161.1,61.4c0-2.7-1.7-4.3-4.4-4.3c-0.8,0-2.1,0.3-3.2,0.8c-2.6,1.1-5.1,3.9-5.1,7.8c0,2.8,1.6,4.4,4.3,4.4
		c1.5,0,3.3-0.6,4.9-1.8C159.7,66.8,161.1,64.1,161.1,61.4z M154.7,68.5c-0.3,0.1-0.5,0.1-0.8,0.1c-1.4,0-2.3-1.2-2.3-3.1
		c0-4.4,2.3-6.5,3.4-6.9c0.3-0.1,0.6-0.2,1-0.2l0,0c1.3,0,2.1,1.2,2.1,3.1C158.1,65.1,156.3,68,154.7,68.5z"/>
	<path class="st0" d="M172.2,49.4c-1.4,0-3.4,1-4.8,2.3c-1.3,1.2-2.2,3-2.9,5.9h-1.8l-1.2,0.8l0.1,0.7h2.5c-0.4,1.7-0.7,3.2-1.1,5.2
		l-0.8,3.7c-0.8,4-1.5,6.2-2.1,6.8c-0.3,0.3-0.8,0.5-1.3,0.5s-1.5-0.3-2-0.6c-0.3-0.2-0.6-0.2-0.9,0c-0.5,0.3-1,0.8-1,1.3
		c0,0.8,1.2,1.4,2.3,1.4c1.2,0,2.6-0.6,3.8-1.7c2.2-1.9,3-3.6,4.1-8.3c0.9-3.5,1.2-5.2,1.8-8.1v-0.1l3-0.3l1.4-1.2h-3.8
		c0.9-4.6,1.8-6.5,3.1-6.5c0.6,0,1.2,0.3,1.7,0.8c0.3,0.3,0.7,0.4,1.1,0.1c0.2-0.2,0.9-0.7,0.9-1.3c0-0.2-0.1-0.5-0.3-0.8
		C173.6,49.7,173,49.4,172.2,49.4z"/>
	<path class="st0" d="M196.9,52.5c-1.5-1-3.9-1.4-7.1-1.4h-10.2v1.1h0.3c2.8,0.2,2.9,0.3,2.9,3.1v14.8c0,2.8-0.1,2.9-3.2,3.1h-0.3
		v1.1h11.2v-1.1h-0.3c-3.2-0.2-3.4-0.4-3.4-3.1v-5.6l2.7,0.6c0.4,0.1,1.2,0.1,1.7,0c4.1-0.4,8.4-2.6,8.4-7.4
		C199.7,55.5,198.7,53.7,196.9,52.5z M189.4,63.5c-1.1,0-2-0.1-2.6-0.3v-8.8c0-1,0.1-1.5,0.3-1.7c0.1-0.1,0.8-0.3,2-0.3
		c3.8,0,6,1.9,6,5.3C195.3,62.9,191.2,63.5,189.4,63.5z"/>
	<path class="st0" d="M211.5,58.4c-2,0-3.7,1.9-4.7,3.1v-3.4l-0.5,0.2c-2,0.7-3.6,1.2-5.5,1.4h-0.3v0.9h0.3c2.2,0.3,2.2,0.3,2.2,2.4
		v7.6c0,2.2-0.1,2.3-2.4,2.5h-0.3v1.1h9.9v-1.1h-0.3c-3.1-0.2-3.1-0.4-3.1-2.5v-7c0.9-1.6,1.9-2.5,2.8-2.5c0.6,0,1,0.2,1.6,0.7
		c0.3,0.3,0.8,0.3,1.4,0.1c0.9-0.4,1.4-1.1,1.4-1.7C214,59.4,213,58.4,211.5,58.4z"/>
	<path class="st0" d="M219.1,55c1.1,0,2.1-0.8,2.1-1.8s-0.9-1.8-2.1-1.8c-1.1,0-2,0.8-2,1.8C217.1,54.1,218.1,55,219.1,55z"/>
	<path class="st0" d="M221.2,70.8V58.2l-0.5,0.2c-1.6,0.6-3.4,1.1-5.4,1.3H215v1h0.3c2.1,0.4,2.2,0.4,2.2,2.4v7.6
		c0,2.2-0.1,2.3-2.5,2.5h-0.3v1.1h9.5v-1.1h-0.3C221.3,73.1,221.2,73,221.2,70.8z"/>
	<path class="st0" d="M243,70.7v-6.9c0-3.4-2.1-5.4-5.6-5.4c-1.3,0-2.2,0.4-3.4,1.1c-0.9,0.5-1.8,1-2.5,1.4v-2.7l-0.5,0.2
		c-1.6,0.6-3.3,1.1-5.4,1.4h-0.3v0.9l0.3,0.1c2.1,0.4,2.1,0.4,2.1,2.4v7.6c0,2.2-0.2,2.4-2.8,2.6h-0.3v1.1h9.5v-1.1h-0.3
		c-2.2-0.2-2.4-0.3-2.4-2.5v-8.4c1.1-0.8,2.7-1.6,4.2-1.6c2.4,0,3.5,1.2,3.5,3.7v5.9c0,2.6-0.2,2.7-2.6,2.9h-0.3v1.1h9.2v-1.1h-0.3
		C243.1,73.1,243,73,243,70.7z"/>
	<path class="st0" d="M259.7,70.2c-1.9,1.5-3.2,1.8-4.9,1.8c-2.4,0-6.1-1.7-6.1-6.4c0-3.3,1.8-5.3,4.9-5.3c1.5,0,2.9,0.4,3.9,1.3
		c0.5,0.4,0.7,0.5,1.1,0.5c0.6,0,1.5-0.7,1.5-1.6c0-0.5-0.2-0.8-0.8-1.3c-0.7-0.5-2.1-1-3.8-1c-1.6,0-4.1,0.6-6.2,2
		c-2.9,1.9-4.3,4.3-4.3,7.1c0,3.6,3,7.4,8.4,7.4c2.3,0,4.9-1.4,7.1-3.7l0.2-0.2l-0.8-0.9L259.7,70.2z"/>
	<path class="st0" d="M277.1,63.5c0-2.4-2.6-5.2-6.3-5.2c-2,0-4.4,1-6.2,2.6c-1.8,1.7-2.8,3.8-2.8,6.2c0,3.7,2.6,7.6,8.3,7.6
		c1.3,0,4.3-0.8,6.7-3.6l0.2-0.2l-0.8-0.8l-0.2,0.2c-1.4,1.1-2.9,1.7-4.4,1.7c-1.7,0-3.3-0.6-4.4-1.8c-1.2-1.2-1.8-2.9-1.8-5
		c5-0.1,9.8-0.4,10.5-0.6C276.7,64.6,277.1,64.4,277.1,63.5z M272.6,63.6c-2.3,0.1-4.6,0.1-6.9,0.1c0.6-2.5,2.4-3.7,3.9-3.7l0,0
		c1,0,1.9,0.3,2.5,1c0.6,0.6,0.9,1.5,0.9,2.4C273.1,63.4,273.1,63.6,272.6,63.6z"/>
	<path class="st0" d="M304.4,68.7c-0.4,1-1.1,2.3-1.8,3.1c-0.9,0.9-1.6,1.2-5.4,1.2c-2,0-3.4,0-4.1-0.5c-0.5-0.3-0.8-0.8-0.8-2.5
		v-6.9h3.9c3.7,0,3.7,0.4,4.2,2.5l0.1,0.3h1.1v-7h-1.1l-0.1,0.3c-0.4,2-0.5,2.4-4.2,2.4h-3.8v-8.4c0-0.7,0-0.7,0.9-0.7h2.8
		c3.4,0,4.4,0.2,5.1,1c0.5,0.6,0.9,1.4,1.3,2.7l0.1,0.3l1.2-0.2V56c-0.1-1.2-0.3-3.4-0.3-4.5v-0.3H285v1.1h0.3
		c2.9,0.3,3.1,0.3,3.1,3.4v14.5c0,2.7-0.1,2.9-3.7,3.2h-0.3v1.1h19.9l0.1-0.2c0.4-1.2,1.2-4,1.5-5.2l0.1-0.4l-1.2-0.2L304.4,68.7z"
		/>
	<path class="st0" d="M323.3,70.5v-22l-0.4,0.1c-1.4,0.4-4,1-6.1,1.2h-0.3v0.9h0.3c2.8,0.2,2.8,0.3,2.8,2.3v5.6
		c-0.9-0.2-1.9-0.2-2.5-0.2c-5.9,0-10.8,4-10.8,8.8c0,5.2,4.7,7.6,7.8,7.6c0.8,0,2-0.4,3.5-1.1l2-1V75l0.5-0.2
		c1.5-0.5,3.5-0.9,6-1.3h0.3v-1l-1.6-0.2C323.4,72.2,323.3,72.1,323.3,70.5z M319.5,71.3c-0.9,0.5-2.3,1.1-3.6,1.1
		c-2.8,0-5.5-2.1-5.5-6c0-5,3.3-6.3,5.2-6.3c1.7,0,3.1,0.6,4,1.7v9.5H319.5z"/>
	<path class="st0" d="M352.7,59.9v-1.1H345v1.1h0.3c1.2,0.2,2.2,0.3,2.4,0.7c0.1,0.2,0.1,0.7-0.1,1.3c-0.7,2.4-1.6,4.8-2.4,7.1
		l-0.3,0.8c-1.9-3.9-3.4-7.2-4.9-10.5l-0.1-0.2h-1l-0.1,0.2c-1.5,3.7-3,7.1-4.5,10.3c-1.3-3-2.3-5.6-3.2-7.9c-0.2-0.5-0.3-1-0.2-1.1
		c0.2-0.3,1.2-0.4,2.2-0.6h0.3v-1.1h-8.9V60h0.3c1.8,0.2,2,0.3,2.6,2c1.7,4.3,3.4,8.5,5,12.7l0.1,0.2h1.1l0.1-0.2
		c1.2-2.9,2.4-5.6,3.7-8.4c0.3-0.6,0.6-1.3,0.9-1.9c0.5,1,1,2,1.4,3c1.2,2.5,2.4,4.9,3.5,7.4l0.1,0.2h1.1l1-2.5
		c1.6-4,3.2-8.1,4.1-10.1c0.8-1.7,0.9-2.1,2.9-2.3L352.7,59.9z"/>
	<path class="st0" d="M367.7,71.9c-0.3,0.2-0.8,0.3-1.2,0.3c-0.7,0-1.2-0.6-1.2-1.6v-6.7c0-2.2-0.6-3.6-2-4.6
		c-0.9-0.6-2.1-0.9-3.4-0.9c-2.1,0.4-4.9,1.7-6.2,2.5c-0.7,0.4-1.4,0.9-1.4,1.5c0,0.9,1.1,1.7,2,1.7c0.7,0,1.1-0.3,1.3-1
		c0.4-1.1,0.7-1.8,1.2-2.2c0.4-0.4,0.9-0.6,1.6-0.6c2.1,0,3.2,1.4,3.2,3.9v0.7c-1.2,0.7-3.8,1.5-6.1,2.1c-2.4,0.7-3.4,1.8-3.4,3.5
		c0,2.1,2.1,4.3,5.2,4.3c0.9,0,2.6-1,4.5-2.1c0.2,0.5,0.5,1,0.9,1.3c0.5,0.5,1.5,0.8,2.3,0.8h0.1l3.5-2l-0.6-1.1L367.7,71.9z
		 M361.6,71.4c-0.8,0.7-2,1-2.8,1c-1.1,0-2.7-0.8-2.7-2.5c0-1,0.6-1.6,2.3-2.3c0.3-0.1,0.8-0.3,1.3-0.5c0.7-0.3,1.4-0.5,1.9-0.8
		L361.6,71.4L361.6,71.4z"/>
	<path class="st0" d="M382.5,60.3c0-0.9-1-2-2.5-2c-1.9,0-3.7,1.9-4.6,3.1V58l-0.5,0.2c-2,0.7-3.6,1.2-5.5,1.4h-0.3v0.9h0.3
		c2.2,0.3,2.2,0.3,2.2,2.4v7.6c0,2.2-0.1,2.3-2.4,2.5h-0.3v1.1h9.9V73h-0.3c-3.1-0.2-3.1-0.4-3.1-2.5v-7c0.9-1.6,1.9-2.5,2.8-2.5
		c0.6,0,1,0.2,1.6,0.7c0.3,0.3,0.8,0.3,1.4,0.1C382,61.6,382.5,61,382.5,60.3z"/>
	<path class="st0" d="M399.6,72.4c-1.4-0.2-1.4-0.3-1.4-1.9v-22l-0.4,0.1c-1.4,0.4-4,1-6.1,1.2h-0.3v0.9h0.3
		c2.8,0.2,2.8,0.3,2.8,2.3v5.6c-0.9-0.2-1.9-0.2-2.5-0.2c-5.9,0-10.8,4-10.8,8.8c0,5.2,4.7,7.6,7.8,7.6c0.8,0,2-0.4,3.5-1.1l2-1V75
		l0.5-0.2c1.5-0.5,3.5-0.9,6-1.3h0.3v-1L399.6,72.4z M394.4,71.3c-0.9,0.5-2.3,1.1-3.6,1.1c-2.8,0-5.5-2.1-5.5-6
		c0-5,3.3-6.3,5.2-6.3c1.7,0,3.1,0.6,4,1.7v9.5H394.4z"/>
</g>
<g>
	<path class="st0" d="M148.4,85.8h0.4c6.1,0.5,6.6,1,6.6,7.7v33.7c0,6.6-0.5,7.2-6.6,7.7h-0.4v1.8h21.3v-1.8h-0.4
		c-6.2-0.5-6.7-1-6.7-7.7V93.5c0-6.6,0.5-7.2,6.7-7.7h0.4V84h-21.3V85.8z"/>
	<path class="st0" d="M191.5,106.7l-0.6-0.3c-6.2-3.4-10.3-6.1-10.3-12.1c0-4.2,2.3-9,8.9-9c5.4,0,8.9,3.3,10.9,10.3l0.1,0.4
		l1.8-0.4l-0.2-1.2c-0.6-3.9-1-6.7-1.3-9.4v-0.3l-0.3-0.1c-0.4-0.1-0.8-0.2-1.2-0.3c-2.1-0.6-4.9-1.4-8.8-1.4
		c-10.9,0-16.6,7.2-16.6,14.3c0,8.5,7.4,12.7,12.3,15.4c0.4,0.2,0.8,0.4,1.2,0.7c6.2,3.6,10.2,6.3,10.2,11.9c0,6-3.7,9.8-9.6,9.8
		c-7.9,0-12.2-7-13.5-13l-0.1-0.5l-1.8,0.7v0.3c0.2,2.2,1.4,10.7,2,12.1l0.1,0.1l0.1,0.1c0.9,0.5,2.2,1,4.3,1.6l0.4,0.1
		c1.8,0.5,4.2,1.1,7.3,1.1c11.6,0,17.8-7.7,17.8-15C204.7,113.8,197.7,110,191.5,106.7z"/>
	<path class="st0" d="M244.9,124.4l0.1-0.4l-1.9-0.4L243,124c-1,3.2-2.3,5.8-3.9,7.7c-1.6,1.8-3.9,2.4-9.5,2.4c-3.7,0-6.3-0.2-7.7-1
		c-1.2-0.7-1.5-2.3-1.5-6.8v-33c0-6.9,0.5-7.1,6.1-7.6h0.4v-1.8h-20.2v1.8h0.4c5.9,0.5,6.1,0.7,6.1,7.6v33.6c0,6.8-0.5,7.3-6.6,7.8
		h-0.4v1.8H242l0.1-0.3c0.5-1.6,1.1-4.4,1.7-7C244.3,127.2,244.7,125.3,244.9,124.4z"/>
	<path class="st0" d="M287.1,126.7c-5.6-15-10.9-29.7-15.8-43.6l-0.1-0.4l-1.9,0.7L252,126.5c-2.8,7.1-3.9,7.8-8.4,8.2h-0.4v1.7
		h17.1v-1.7h-0.4c-2.9-0.3-4.7-0.6-5.3-1.5c-0.6-0.9-0.2-2.4,0.6-4.7l0.5-1.4c1-3.2,2.2-6.7,3.8-10.9h16l1.2,3.2
		c1.8,4.8,3.2,8.6,4,11.3c0.4,1.3,0.4,2.1,0.1,2.6c-0.5,0.8-2,1.1-4.5,1.5h-0.4v1.7h19.9v-1.7h-0.4
		C290.7,134.3,289.7,133.7,287.1,126.7z M274.6,113.2h-14.1l1.2-3.2c2-5.3,4-10.7,6.2-16L274.6,113.2z"/>
	<path class="st0" d="M395.5,90.8c-4.8-4.6-12.2-6.8-22.8-6.8h-22h-0.5h-17.1v1.8h0.4c5.5,0.4,6.8,1.3,7.2,5.1
		c0.3,2.7,0.4,6.5,0.4,12.7v20.9l-34-40.4L307,84h-11.7v1.7h0.4c4.2,0.4,4.9,1.1,6.7,3.1c1.4,1.7,1.6,2.4,1.6,8.4v18.4
		c0,7.3-0.3,11-0.5,13.3v0.3c-0.4,4.3-1.9,5.1-6.5,5.5h-0.4v1.8h18v-1.8h-0.4c-5.2-0.5-6.6-1.2-7-5.5c-0.3-2.9-0.5-7.3-0.5-13.6
		V94.8l35.1,42.5l0.1,0.1h1.9v-33.8c0-7,0.2-10.3,0.3-12.9c0.3-3.9,1.7-4.7,6-5h0.4l0,0c5.7,0.5,6.2,0.7,6.2,7.7v33.7
		c0,6.6-0.5,7.2-7,7.7h-0.4v1.8h18.8c10.1,0,18.5-2.3,24.3-6.8c6.5-4.9,9.9-12.4,9.9-21.5C402.5,101.2,400.1,95.1,395.5,90.8z
		 M364.2,91.7c0-3.9,0.4-4.5,0.9-4.7c0.8-0.3,2.4-0.6,5.4-0.6c5.5,0,10,0.9,13.3,2.8c6.6,3.6,10.3,10.8,10.3,20.3
		c0,11.8-5.8,24.4-22.2,24.4c-5.1,0-7.8-1.2-7.8-7.2v-35H364.2z"/>
</g>
</svg>
